<?xml version="1.0" encoding="UTF-8" standalone="no"?>
<!-- Created with Inkscape (http://www.inkscape.org/) -->

<svg
   width="29.553959mm"
   height="29.525909mm"
   viewBox="0 0 29.553959 29.525909"
   version="1.1"
   id="svg1"
   inkscape:version="1.4.2 (ebf0e940, 2025-05-08)"
   sodipodi:docname="Qemu_logo_small.svg"
   xmlns:inkscape="http://www.inkscape.org/namespaces/inkscape"
   xmlns:sodipodi="http://sodipodi.sourceforge.net/DTD/sodipodi-0.dtd"
   xmlns="http://www.w3.org/2000/svg"
   xmlns:svg="http://www.w3.org/2000/svg">
  <sodipodi:namedview
     id="namedview1"
     pagecolor="#ffffff"
     bordercolor="#000000"
     borderopacity="0.25"
     inkscape:showpageshadow="2"
     inkscape:pageopacity="0.0"
     inkscape:pagecheckerboard="0"
     inkscape:deskcolor="#d1d1d1"
     inkscape:document-units="mm"
     inkscape:zoom="0.89887065"
     inkscape:cx="260.88292"
     inkscape:cy="560.14734"
     inkscape:window-width="976"
     inkscape:window-height="1186"
     inkscape:window-x="60"
     inkscape:window-y="25"
     inkscape:window-maximized="0"
     inkscape:current-layer="layer1" />
  <defs
     id="defs1">
    <radialGradient
       id="cvfa"
       cx="117"
       cy="98.300003"
       r="55.900002"
       gradientTransform="matrix(0.25770416,0.39952083,-0.22119166,0.142875,40.682898,-48.817362)"
       gradientUnits="userSpaceOnUse"
       inkscape:collect="always">
      <stop
         offset="0"
         id="stop3" />
      <stop
         style="stop-opacity:.897"
         offset="1"
         id="stop4" />
    </radialGradient>
    <linearGradient
       id="cvfb"
       x1="143"
       x2="143"
       y1="832"
       y2="879"
       gradientUnits="userSpaceOnUse"
       inkscape:collect="always"
       gradientTransform="matrix(0.2778125,0,0,0.3413125,11.261232,-283.50278)">
      <stop
         style="stop-color:#fff"
         offset="0"
         id="stop1" />
      <stop
         style="stop-color:#fff;stop-opacity:0"
         offset="1"
         id="stop2" />
    </linearGradient>
  </defs>
  <g
     inkscape:label="Layer 1"
     inkscape:groupmode="layer"
     id="layer1"
     transform="translate(-36.05269,-0.26443481)">
    <path
       d="m 50.842898,0.36867861 c -8.175625,0 -14.790208,6.58812499 -14.790208,14.71083339 0,8.122709 6.614583,14.710833 14.790208,14.710833 2.672292,0 5.159375,-0.701145 7.328958,-1.934104 l 0.769938,1.934104 h 5.953125 l -2.33098,-5.767916 c 1.910292,-2.4765 3.042709,-5.582708 3.042709,-8.942917 0,-8.1227084 -6.614583,-14.71083339 -14.76375,-14.71083339 z"
       style="fill:url(#cvfa);stroke-width:0.264583"
       inkscape:connector-curvature="0"
       id="path4" />
    <ellipse
       cx="50.710609"
       cy="8.6607227"
       rx="9.8345633"
       ry="8.3962879"
       style="fill:url(#cvfb);stroke-width:0.30793"
       id="ellipse4" />
    <circle
       cx="52.343086"
       cy="6.2159724"
       r="1.7383125"
       id="circle4"
       style="stroke-width:0.264583" />
    <rect
       transform="matrix(0.98972836,0.14296077,-0.18995972,0.98179188,0,0)"
       x="49.626064"
       y="0.18294977"
       width="9.9510632"
       height="1.4555168"
       id="rect4"
       style="stroke-width:0.264648" />
    <rect
       x="57.986649"
       y="9.1263866"
       width="1.7383125"
       height="0.76729167"
       id="rect5"
       style="stroke-width:0.264583" />
    <path
       d="m 46.874148,2.7763866 c -0.01508,0.579438 -1.023937,0.07488 -1.066271,0.735542 -1.116541,-0.497417 0.08705,0.759354 -0.02479,0.875771 h -0.0083 l -0.08255,-0.0083 c -0.05398,-0.01926 -0.132292,-0.05265 -0.248179,-0.12409 -0.780521,0.621771 -0.799042,1.912938 -1.603375,2.629959 -0.526521,1.140354 -0.656167,2.375958 -1.042459,3.5718754 -0.189971,1.137708 -0.357187,2.275416 -0.07435,3.413125 0.08493,0.926041 -0.182298,2.185458 0.661459,2.831041 1.251479,1.026584 2.291291,2.328333 3.33375,3.571875 1.645708,2.024063 3.095625,4.206875 4.392083,6.455833 0.08573,-0.560916 0.293687,1.127125 0.669396,1.240896 -0.130175,-0.844021 -0.298979,-2.185458 -0.381,-3.227916 -0.418042,-2.725209 -1.759479,-5.185834 -2.264834,-7.884584 -0.01553,-0.11377 -0.03387,-0.230716 -0.04974,-0.346604 v -0.338666 h -0.04127 c -0.165629,-1.3335 -0.224896,-2.778125 0.743479,-3.81 0.989542,-0.99748 2.463271,-1.248834 3.65125,-1.942042 0.264583,-0.156369 0.542396,-0.283104 0.8255,-0.373063 0.0024,-7.93e-4 0.006,7.94e-4 0.0083,0 0.8255,-0.2547934 1.706562,-0.2468564 2.563812,-0.1074204 0.01267,0.0021 0.02857,0.0062 0.04127,0.0083 0.07805,0.01304 0.162454,0.02619 0.239713,0.04127 0.627062,0.05583 1.889125,0.3016254 2.116666,-0.132292 -0.865187,-0.738188 -2.11402,-0.685271 -3.175,-0.976313 -0.166952,-0.03043 -0.373062,-0.0635 -0.579437,-0.08255 l -1.034521,-0.23151 -0.256381,-0.06615 v 0.0083 l -3.704167,-0.719666 c -0.05874,-0.05345 -0.122766,-0.108215 -0.182033,-0.148696 l 3.598333,0.447146 v -0.01654 c 0.127,0.02831 0.252942,0.05133 0.381,0.06615 v 0.0083 l 2.545292,0.470958 c 0.439208,0.164042 0.907521,0.28575 1.346729,0.314854 0.724958,0.105569 1.648354,1.1879804 1.883833,1.2408964 -0.116681,-1.1403544 -1.254125,-1.6510004 -2.198687,-1.9843754 -1.103313,-0.537104 -2.751667,-0.515937 -2.936875,-2.00025 -0.04657,-0.103452 -0.09234,-0.206639 -0.148696,-0.306916 l -0.428625,-0.5715 0.01654,-0.0083 c -0.587375,-0.693209 -1.412875,-1.195917 -2.291292,-1.389063 -0.870479,-0.301625 -1.849438,-0.600604 -2.778125,-0.719667 -0.312208,0.92075 -0.661458,-0.73025 -1.412875,-0.239712 -0.658813,0.07805 -0.568854,0.252148 -1.058333,-0.165365 z m 4.736042,2.69875 c 0.238654,-0.0063 0.510645,0.03757 0.785812,0.132292 0.73025,0.252413 1.2065,0.785813 1.066271,1.190625 -0.140229,0.404813 -0.849313,0.526521 -1.579563,0.272521 -0.73025,-0.254 -1.2065,-0.775229 -1.06627,-1.182688 0.08758,-0.253735 0.396875,-0.402166 0.79375,-0.41275 z"
       style="fill:#ff6600;stroke-width:0.264583"
       inkscape:connector-curvature="0"
       id="path5" />
  </g>
</svg>
