<!-- created by svgstack.com | Attribution is required. --><svg width="128" height="128" viewBox="0 0 128 128" fill="none" xmlns="http://www.w3.org/2000/svg"><path d="M107.037 107.335C114.468 107.335 119.999 101.96 119.999 94.6895C119.999 87.2586 114.624 82.0435 107.037 82.0435C99.6091 82.0435 94.2324 87.2586 94.2324 94.6895C94.2324 102.117 99.6075 107.335 107.037 107.335Z" fill="#E80000"/><path d="M44.4424 108.283C65.3317 108.283 78.7505 97.7529 78.7505 81.1096C78.7505 68.2023 70.4281 59.2004 55.652 55.8033L46.6517 53.5956L45.3372 53.2915C37.9001 51.513 34.2528 49.5381 34.2528 43.9159C34.2528 38.9906 38.1598 36.2729 44.7829 36.2729C65.8385 36.2729 73.4704 43.9159 73.4704 43.9159V27.3581L73.1996 27.0921C71.6761 25.6794 63.5864 19.1196 44.6135 19.1196C24.5731 19.1196 12.0047 29.3077 12.0047 45.2716C12.0047 57.9493 20.1957 66.6946 34.9686 70.3815L44.273 72.6145C52.0855 74.4833 55.9925 76.5215 55.9925 82.4652C55.9925 87.9006 51.7465 90.9572 44.273 90.9572C22.7471 90.9587 12.0047 79.4578 12.0047 79.4578V99.3144L12.2803 99.6058C13.8339 101.148 22.2197 108.283 44.4424 108.283Z" fill="url(#paint0_linear_10019_795)"/><defs><linearGradient id="paint0_linear_10019_795" x1="31899.4" y1="-18.2671" x2="31899.4" y2="15706.2" gradientUnits="userSpaceOnUse"><stop stop-color="#9D39FF"/><stop offset="1" stop-color="#A380FF"/></linearGradient></defs></svg> 